<svg xmlns="http://www.w3.org/2000/svg" width="1600" height="900" viewBox="0 0 1600 900">
  <defs><linearGradient id="bg" x2="1" y2="1"><stop stop-color="#faf9ff"/><stop offset="1" stop-color="#eeeaff"/></linearGradient><filter id="s"><feDropShadow dx="0" dy="24" stdDeviation="30" flood-color="#392c80" flood-opacity=".15"/></filter></defs>
  <rect width="1600" height="900" fill="url(#bg)"/><circle cx="1420" cy="760" r="320" fill="#8d79f5" opacity=".12"/>
  <g filter="url(#s)"><rect x="100" y="70" width="1400" height="760" rx="30" fill="#fff"/><rect x="100" y="70" width="1400" height="72" rx="30" fill="#f3f1fa"/><rect x="100" y="112" width="1400" height="30" fill="#f3f1fa"/><circle cx="145" cy="106" r="9" fill="#7562e8"/><circle cx="176" cy="106" r="9" fill="#d8d4e8"/><circle cx="207" cy="106" r="9" fill="#d8d4e8"/><text x="800" y="115" text-anchor="middle" font-family="Arial" font-size="18" font-weight="700" fill="#736f7e">MarkNest · 展示</text>
  <text x="180" y="215" font-family="Arial" font-size="15" font-weight="800" letter-spacing="3" fill="#6c58dc">MARKDOWN PREVIEW</text><text x="180" y="285" font-family="Arial" font-size="43" font-weight="800" fill="#27242f">复杂内容，也能优雅呈现</text>
  <rect x="180" y="360" width="250" height="100" rx="18" fill="#f1effb" stroke="#ded8fa"/><rect x="675" y="360" width="250" height="100" rx="18" fill="#f1effb" stroke="#ded8fa"/><rect x="1170" y="360" width="250" height="100" rx="18" fill="#f1effb" stroke="#ded8fa"/><text x="305" y="420" text-anchor="middle" font-family="Arial" font-size="20" font-weight="700" fill="#4c4755">对话</text><text x="800" y="420" text-anchor="middle" font-family="Arial" font-size="20" font-weight="700" fill="#4c4755">Markdown</text><text x="1295" y="420" text-anchor="middle" font-family="Arial" font-size="20" font-weight="700" fill="#4c4755">本地知识</text><path d="M450 410h195m-20-18 20 18-20 18M945 410h195m-20-18 20 18-20 18" fill="none" stroke="#765fe8" stroke-width="5"/>
  <rect x="180" y="540" width="470" height="170" rx="20" fill="#faf9fd" stroke="#e4e1eb"/><text x="220" y="590" font-family="Arial" font-size="16" fill="#8a8591">公式</text><text x="415" y="665" text-anchor="middle" font-family="Georgia" font-size="42" font-style="italic" fill="#292530">E = mc²</text><rect x="690" y="540" width="730" height="170" rx="20" fill="#24212d"/><text x="735" y="590" font-family="monospace" font-size="15" fill="#a99af6">const knowledge =</text><text x="735" y="630" font-family="monospace" font-size="15" fill="#84d4af">  await capture(conversation)</text><text x="735" y="670" font-family="monospace" font-size="15" fill="#d3cfdb">saveLocally(knowledge)</text></g>
</svg>
